HIERARCHY
ROOT hip
{
  OFFSET 0 0 0
  CHANNELS 6 Xposition Yposition Zposition Zrotation Yrotation Xrotation
  JOINT abdomen
  {
    OFFSET 0 20.6881 -0.73152
    CHANNELS 3 Zrotation Xrotation Yrotation
    JOINT chest
    {
      OFFSET 0 11.7043 -0.48768
      CHANNELS 3 Zrotation Xrotation Yrotation
      JOINT neck
      {
        OFFSET 0 22.1894 -2.19456
        CHANNELS 3 Zrotation Xrotation Yrotation
        JOINT head
        {
          OFFSET -0.24384 7.07133 1.2192
          CHANNELS 3 Zrotation Xrotation Yrotation
          JOINT leftEye
          {
            OFFSET 4.14528 8.04674 8.04672
            CHANNELS 3 Zrotation Xrotation Yrotation
            End Site
            {
              OFFSET 1 0 0
            }
          }
          JOINT rightEye
          {
            OFFSET -3.6576 8.04674 8.04672
            CHANNELS 3 Zrotation Xrotation Yrotation
            End Site
            {
              OFFSET 1 0 0
            }
          }
        }
      }
      JOINT rCollar
      {
        OFFSET -2.68224 19.2634 -4.8768
        CHANNELS 3 Zrotation Xrotation Yrotation
        JOINT rShldr
        {
          OFFSET -8.77824 -1.95073 1.46304
          CHANNELS 3 Zrotation Xrotation Yrotation
          JOINT rForeArm
          {
            OFFSET -28.1742 -1.7115 0.48768
            CHANNELS 3 Zrotation Xrotation Yrotation
            JOINT rHand
            {
              OFFSET -22.5879 0.773209 7.07136
              CHANNELS 3 Zrotation Xrotation Yrotation
              JOINT rThumb1
              {
                OFFSET -1.2192 -0.487915 3.41376
                CHANNELS 3 Zrotation Xrotation Yrotation
                JOINT rThumb2
                {
                  OFFSET -3.37035 -0.52449 3.41376
                  CHANNELS 3 Zrotation Xrotation Yrotation
                  End Site
                  {
                    OFFSET -1.78271 -1.18214 1.43049
                  }
                }
              }
              JOINT rIndex1
              {
                OFFSET -7.75947 0.938293 5.60832
                CHANNELS 3 Zrotation Xrotation Yrotation
                JOINT rIndex2
                {
                  OFFSET -2.54057 -0.884171 1.56538
                  CHANNELS 3 Zrotation Xrotation Yrotation
                  End Site
                  {
                    OFFSET -1.62519 -0.234802 1.16502
                  }
                }
              }
              JOINT rMid1
              {
                OFFSET -8.24714 1.18213 3.41376
                CHANNELS 3 Zrotation Xrotation Yrotation
                JOINT rMid2
                {
                  OFFSET -3.10165 -0.590103 1.0647
                  CHANNELS 3 Zrotation Xrotation Yrotation
                  End Site
                  {
                    OFFSET -2.48547 -0.328903 0.83742
                  }
                }
              }
              JOINT rRing1
              {
                OFFSET -8.82822 0.546677 1.51678
                CHANNELS 3 Zrotation Xrotation Yrotation
                JOINT rRing2
                {
                  OFFSET -2.60934 -0.819778 -0.0198488
                  CHANNELS 3 Zrotation Xrotation Yrotation
                  End Site
                  {
                    OFFSET -2.33842 -0.294052 0.168128
                  }
                }
              }
              JOINT rPinky1
              {
                OFFSET -8.27202 -0.0477905 -0.4584
                CHANNELS 3 Zrotation Xrotation Yrotation
                JOINT rPinky2
                {
                  OFFSET -1.82734 -0.647385 -0.700984
                  CHANNELS 3 Zrotation Xrotation Yrotation
                  End Site
                  {
                    OFFSET -1.69225 -0.51767 -0.607171
                  }
                }
              }
            }
          }
        }
      }
      JOINT lCollar
      {
        OFFSET 2.68224 19.2634 -4.8768
        CHANNELS 3 Zrotation Xrotation Yrotation
        JOINT lShldr
        {
          OFFSET 8.77824 -1.95073 1.46304
          CHANNELS 3 Zrotation Xrotation Yrotation
          JOINT lForeArm
          {
            OFFSET 28.1742 -1.7115 0.48768
            CHANNELS 3 Zrotation Xrotation Yrotation
            JOINT lHand
            {
              OFFSET 22.5879 0.773209 7.07136
              CHANNELS 3 Zrotation Xrotation Yrotation
              JOINT lThumb1
              {
                OFFSET 1.2192 -0.487915 3.41376
                CHANNELS 3 Zrotation Xrotation Yrotation
                JOINT lThumb2
                {
                  OFFSET 3.37035 -0.52449 3.41376
                  CHANNELS 3 Zrotation Xrotation Yrotation
                  End Site
                  {
                    OFFSET 1.78271 -1.18214 1.43049
                  }
                }
              }
              JOINT lIndex1
              {
                OFFSET 7.75947 0.938293 5.60832
                CHANNELS 3 Zrotation Xrotation Yrotation
                JOINT lIndex2
                {
                  OFFSET 2.54057 -0.884171 1.56538
                  CHANNELS 3 Zrotation Xrotation Yrotation
                  End Site
                  {
                    OFFSET 1.62519 -0.234802 1.16502
                  }
                }
              }
              JOINT lMid1
              {
                OFFSET 8.24714 1.18213 3.41376
                CHANNELS 3 Zrotation Xrotation Yrotation
                JOINT lMid2
                {
                  OFFSET 3.10165 -0.590103 1.0647
                  CHANNELS 3 Zrotation Xrotation Yrotation
                  End Site
                  {
                    OFFSET 2.48547 -0.328903 0.83742
                  }
                }
              }
              JOINT lRing1
              {
                OFFSET 8.82822 0.546677 1.51678
                CHANNELS 3 Zrotation Xrotation Yrotation
                JOINT lRing2
                {
                  OFFSET 2.60934 -0.819778 -0.0198488
                  CHANNELS 3 Zrotation Xrotation Yrotation
                  End Site
                  {
                    OFFSET 2.33842 -0.294052 0.168128
                  }
                }
              }
              JOINT lPinky1
              {
                OFFSET 8.27202 -0.0477905 -0.4584
                CHANNELS 3 Zrotation Xrotation Yrotation
                JOINT lPinky2
                {
                  OFFSET 1.82734 -0.647385 -0.700984
                  CHANNELS 3 Zrotation Xrotation Yrotation
                  End Site
                  {
                    OFFSET 1.69225 -0.51767 -0.607171
                  }
                }
              }
            }
          }
        }
      }
    }
  }
  JOINT rButtock
  {
    OFFSET -8.77824 4.35084 1.2192
    CHANNELS 3 Zrotation Xrotation Yrotation
    JOINT rThigh
    {
      OFFSET 0 -1.70687 -2.19456
      CHANNELS 3 Zrotation Xrotation Yrotation
      JOINT rShin
      {
        OFFSET 0 -36.8199 0.73152
        CHANNELS 3 Zrotation Xrotation Yrotation
        JOINT rFoot
        {
          OFFSET 0.73152 -45.1104 -5.12064
          CHANNELS 3 Zrotation Xrotation Yrotation
          End Site
          {
            OFFSET -1.1221 -3.69964 12.103
          }
        }
      }
    }
  }
  JOINT lButtock
  {
    OFFSET 8.77824 4.35084 1.2192
    CHANNELS 3 Zrotation Xrotation Yrotation
    JOINT lThigh
    {
      OFFSET 0 -1.70687 -2.19456
      CHANNELS 3 Zrotation Xrotation Yrotation
      JOINT lShin
      {
        OFFSET 0 -36.8199 0.73152
        CHANNELS 3 Zrotation Xrotation Yrotation
        JOINT lFoot
        {
          OFFSET -0.73152 -45.1104 -5.12064
          CHANNELS 3 Zrotation Xrotation Yrotation
          End Site
          {
            OFFSET 1.1221 -3.69964 12.103
          }
        }
      }
    }
  }
}
MOTION
Frames:	6
Frame Time:	0.00833333
2.52364 82.6662 58.9709 -6.8509 -1.3781 -1.3437 7.38654 10.3198 4.91858 -2.64952 -6.33529 1.38858 -1.79435 -2.05706 -4.00939 3.91885 -1.57677 -7.32214 -0.0 0.0 0.0 -0.0 0.0 0.0 -2.83113e-14 -5.56616e-15 4.30866e-14 76.2429 12.5165 9.47437 -14.4545 -7.32712 26.4732 -0.00189583 -1.24318 -0.174745 -4.43723e-10 1.70869e-09 9.92552e-10 -7.69849e-10 2.96256e-09 1.72077e-09 -4.43718e-10 1.70869e-09 9.9254e-10 7.73091 5.47488 0.417314 -4.43724e-10 1.70869e-09 9.92559e-10 2.90554 0.965183 0.102902 -4.43714e-10 1.70869e-09 9.92556e-10 10.2786 0.731801 0.0259123 -4.43729e-10 1.70869e-09 9.92562e-10 2.22167 -0.733487 -0.20892 -2.83442e-14 -5.56558e-15 4.27387e-14 -78.4332 25.9909 1.06508 12.0661 -5.49511 -21.7379 0.109717 -9.40443 1.33383 7.4653e-10 2.64024e-10 2.31325e-10 1.28991e-09 4.55745e-10 4.03888e-10 7.46527e-10 2.64023e-10 2.31338e-10 -7.73091 5.47488 -0.417314 7.46533e-10 2.64025e-10 2.31325e-10 -2.90554 0.965183 -0.102902 7.46521e-10 2.64022e-10 2.31324e-10 -10.2786 0.731801 -0.0259123 7.46534e-10 2.64027e-10 2.31319e-10 -2.22167 -0.733487 0.20892 -2.03217e-16 0.0 -3.88251e-19 14.4117 -2.45897 5.36557 -0.132531 23.934 0.397264 -3.98463 -11.8586 -12.0393 2.03217e-16 0.0 3.88251e-19 6.60467 -33.5131 -1.31663 0.294175 36.9639 -0.355659 0.88245 -2.61748 3.40848
2.52578 82.7217 59.7972 -6.8176 -1.4814 -1.2429 7.40049 10.21 5.15472 -2.78118 -6.25856 1.44567 -1.75168 -2.22958 -4.01193 3.86455 -1.49249 -7.34016 -0.0 0.0 0.0 -0.0 0.0 0.0 -5.18895e-14 7.82557e-15 6.66239e-14 76.0752 12.1873 9.85133 -14.3541 -7.24482 26.2672 -0.00127721 -1.06815 -0.150135 -4.68593e-10 1.99648e-09 1.13869e-09 -8.12853e-10 3.46065e-09 1.97382e-09 -4.68589e-10 1.99648e-09 1.13867e-09 7.73091 5.47488 0.417314 -4.68594e-10 1.99648e-09 1.13869e-09 2.90554 0.965183 0.102902 -4.68585e-10 1.99648e-09 1.13869e-09 10.2786 0.731801 0.0259123 -4.686e-10 1.99648e-09 1.1387e-09 2.22167 -0.733487 -0.20892 -5.19215e-14 7.82579e-15 6.63223e-14 -78.552 25.6814 1.12757 11.8242 -5.32913 -21.2651 0.110214 -9.39151 1.33206 7.89711e-10 9.45126e-11 3.32779e-10 1.36319e-09 1.61101e-10 5.79658e-10 7.89708e-10 9.45124e-11 3.32789e-10 -7.73091 5.47488 -0.417314 7.89713e-10 9.45138e-11 3.32777e-10 -2.90554 0.965183 -0.102902 7.89703e-10 9.45117e-11 3.32779e-10 -10.2786 0.731801 -0.0259123 7.89716e-10 9.45166e-11 3.32772e-10 -2.22167 -0.733487 0.20892 -2.03217e-16 0.0 -3.88251e-19 14.3814 -1.72501 5.36811 -0.132859 23.2104 0.365122 -3.95753 -11.7203 -12.0427 2.03217e-16 0.0 3.88251e-19 6.46718 -33.4366 -2.24443 0.239174 34.0935 -0.252945 0.881449 -2.82755 3.4552
2.528 82.7276 60.6107 -6.8945 -1.6674 -1.1191 7.43685 10.1579 5.40783 -2.90823 -6.20058 1.50977 -1.68861 -2.37653 -4.01746 3.79686 -1.41384 -7.37119 -0.0 0.0 0.0 -0.0 0.0 0.0 -9.23297e-14 2.83146e-14 1.00231e-13 75.9539 11.6227 10.2282 -14.137 -7.06721 25.8265 -0.000296679 -0.650817 -0.0914685 -4.91449e-10 2.31301e-09 1.32036e-09 -8.52125e-10 4.00802e-09 2.28823e-09 -4.91448e-10 2.31301e-09 1.32034e-09 7.73091 5.47488 0.417314 -4.9145e-10 2.31301e-09 1.32036e-09 2.90554 0.965183 0.102902 -4.91443e-10 2.31301e-09 1.32036e-09 10.2786 0.731801 0.0259123 -4.91456e-10 2.31301e-09 1.32036e-09 2.22167 -0.733487 -0.20892 -9.23598e-14 2.83143e-14 9.99918e-14 -78.6197 25.3676 1.13137 11.5128 -5.11704 -20.6636 0.108393 -9.26283 1.31363 7.54279e-10 -2.30416e-10 4.23672e-10 1.29989e-09 -4.02937e-10 7.367e-10 7.54277e-10 -2.30415e-10 4.23679e-10 -7.73091 5.47488 -0.417314 7.54282e-10 -2.30414e-10 4.23667e-10 -2.90554 0.965183 -0.102902 7.54274e-10 -2.30415e-10 4.23672e-10 -10.2786 0.731801 -0.0259123 7.54285e-10 -2.30411e-10 4.23664e-10 -2.22167 -0.733487 0.20892 -2.03217e-16 0.0 -3.88251e-19 14.3927 -0.902342 5.37623 -0.13369 22.4436 0.331022 -3.93958 -11.7051 -11.9938 2.03217e-16 0.0 3.88251e-19 6.37509 -33.2479 -3.30597 0.186681 31.1599 -0.150802 0.900292 -3.18205 3.57296
2.53034 82.6935 61.372 -7.1214 -1.852 -0.875 7.46514 10.1088 5.66456 -3.02662 -6.15173 1.57562 -1.61948 -2.46366 -4.02456 3.73378 -1.3639 -7.40745 -0.0 0.0 0.0 -0.0 0.0 0.0 -1.38332e-13 4.92572e-14 1.283e-13 75.8578 11.0785 10.5807 -13.9264 -6.89564 25.405 -8.4368e-05 -0.251672 -0.035372 -4.28584e-10 2.43879e-09 1.47885e-09 -7.43263e-10 4.2255e-09 2.56239e-09 -4.28586e-10 2.43879e-09 1.47883e-09 7.73091 5.47488 0.417314 -4.28586e-10 2.43879e-09 1.47885e-09 2.90554 0.965183 0.102902 -4.28581e-10 2.43879e-09 1.47885e-09 10.2786 0.731801 0.0259123 -4.28593e-10 2.43879e-09 1.47886e-09 2.22167 -0.733487 -0.20892 -1.38362e-13 4.92562e-14 1.28119e-13 -78.6873 24.9833 1.1663 11.1867 -4.89704 -20.0419 0.101303 -8.94829 1.26829 7.75017e-10 -5.1726e-10 5.12993e-10 1.3338e-09 -9.00972e-10 8.90876e-10 7.75016e-10 -5.17258e-10 5.12995e-10 -7.73091 5.47488 -0.417314 7.7502e-10 -5.17259e-10 5.12985e-10 -2.90554 0.965183 -0.102902 7.75013e-10 -5.17258e-10 5.12993e-10 -10.2786 0.731801 -0.0259123 7.75024e-10 -5.17254e-10 5.12982e-10 -2.22167 -0.733487 0.20892 -2.03217e-16 0.0 -3.88251e-19 14.3924 -0.0636344 5.38837 -0.135331 21.7129 0.296692 -3.91975 -11.7474 -11.9013 2.03217e-16 0.0 3.88251e-19 6.30091 -33.01 -4.37058 0.14353 28.3334 -0.0569068 0.937497 -3.65626 3.77511
2.51778 82.7136 62.1753 -7.3617 -2.0195 -0.6617 7.45577 10.0084 5.91143 -3.13228 -6.10234 1.63794 -1.55861 -2.45671 -4.03181 3.6932 -1.36571 -7.44112 -0.0 0.0 0.0 -0.0 0.0 0.0 -1.78596e-13 6.40094e-14 1.35223e-13 75.7587 10.8092 10.8843 -13.8513 -6.83506 25.2554 -2.11155e-05 -0.131211 -0.0184405 -1.96294e-10 2.15436e-09 1.55546e-09 -3.41862e-10 3.73393e-09 2.69473e-09 -1.96297e-10 2.15436e-09 1.55544e-09 7.73091 5.47488 0.417314 -1.96296e-10 2.15436e-09 1.55545e-09 2.90554 0.965183 0.102902 -1.96291e-10 2.15436e-09 1.55546e-09 10.2786 0.731801 0.0259123 -1.96303e-10 2.15436e-09 1.55547e-09 2.22167 -0.733487 -0.20892 -1.78632e-13 6.40079e-14 1.35074e-13 -78.8026 24.462 1.321 10.9039 -4.70903 -19.5078 0.0868636 -8.37777 1.18597 9.86705e-10 -5.72521e-10 6.09728e-10 1.69868e-09 -9.97606e-10 1.05805e-09 9.86704e-10 -5.72518e-10 6.09728e-10 -7.73091 5.47488 -0.417314 9.86708e-10 -5.72519e-10 6.09719e-10 -2.90554 0.965183 -0.102902 9.86703e-10 -5.72518e-10 6.09727e-10 -10.2786 0.731801 -0.0259123 9.86713e-10 -5.72515e-10 6.09716e-10 -2.22167 -0.733487 0.20892 -2.03217e-16 0.0 -3.88251e-19 14.3274 0.718436 5.40257 -0.137797 21.0976 0.263727 -3.88708 -11.7816 -11.7739 2.03217e-16 0.0 3.88251e-19 6.20967 -32.7903 -5.31182 0.113646 25.7845 0.0224492 0.99274 -4.22537 4.07508
2.5122 82.7534 63.0556 -7.5397 -2.1503 -0.5916 7.38351 9.81675 6.17531 -3.22523 -6.0512 1.70346 -1.50341 -2.28984 -4.04344 3.68178 -1.45093 -7.48138 -0.0 0.0 0.0 -0.0 0.0 0.0 -2.2393e-13 7.12963e-14 1.07743e-13 75.6448 10.9675 11.1141 -13.9965 -6.95441 25.5413 0.000511497 -0.472885 -0.0664479 4.16024e-10 1.05932e-09 1.55239e-09 7.15754e-10 1.84151e-09 2.68891e-09 4.16022e-10 1.05932e-09 1.55237e-09 7.73091 5.47488 0.417314 4.16022e-10 1.05932e-09 1.55238e-09 2.90554 0.965183 0.102902 4.16028e-10 1.05932e-09 1.55239e-09 10.2786 0.731801 0.0259123 4.16016e-10 1.05932e-09 1.5524e-09 2.22167 -0.733487 -0.20892 -2.23979e-13 7.12943e-14 1.07589e-13 -78.9843 23.7076 1.66287 10.6831 -4.56566 -19.0909 0.0632137 -7.37211 1.04144 1.64521e-09 -2.22265e-10 7.40879e-10 2.83715e-09 -3.91674e-10 1.2851e-09 1.64521e-09 -2.22262e-10 7.40878e-10 -7.73091 5.47488 -0.417314 1.64522e-09 -2.22263e-10 7.4087e-10 -2.90554 0.965183 -0.102902 1.64521e-09 -2.22262e-10 7.40876e-10 -10.2786 0.731801 -0.0259123 1.64522e-09 -2.22259e-10 7.40865e-10 -2.22167 -0.733487 0.20892 -2.03217e-16 0.0 -3.88251e-19 14.1595 1.44032 5.41717 -0.140834 20.5867 0.229545 -3.83318 -11.7679 -11.6088 2.03217e-16 0.0 3.88251e-19 6.07823 -32.5812 -6.20887 0.0933428 23.4555 0.0892239 1.09768 -5.00643 4.64141
